Coordinates
version=1
nRows=24
nColumns=24
inDegrees=yes

Units are S.I. units (second, meters, Newtons, ...)
Angles are in degrees.

endheader
time	pelvis_tilt	pelvis_list	pelvis_rotation	pelvis_tx	pelvis_ty	pelvis_tz	hip_flexion_r	hip_adduction_r	hip_rotation_r	knee_angle_r	ankle_angle_r	subtalar_angle_r	mtp_angle_r	hip_flexion_l	hip_adduction_l	hip_rotation_l	knee_angle_l	ankle_angle_l	subtalar_angle_l	mtp_angle_l	lumbar_extension	lumbar_bending	lumbar_rotation
      1.40500000	      8.54440545	     -5.26161141	      8.14837901	     -0.07517020	      1.00844058	     -0.00780710	     13.66257800	     -2.70767867	    -31.94934079	    -20.17448176	     -2.86416736	      3.93293976	      6.45919888	     -9.11720643	     -4.03479331	    -13.67182139	    -16.39918294	      6.75152271	     -2.74899207	      5.66850557	    -15.37449278	     16.84067196	     34.09422051
      1.41000000	      8.45996157	     -5.09430772	      8.36926174	     -0.06950465	      1.00738740	     -0.00787366	     13.95339250	     -2.80348172	    -32.56361491	    -18.94139974	     -2.88447515	      4.91016432	      6.42918160	     -9.32461354	     -3.95660147	    -13.56706623	    -16.52189967	      7.05622108	     -2.57519027	      5.73031806	    -15.27611333	     16.69593743	     33.94027084
      1.41500000	      8.36845290	     -4.92304509	      8.59357356	     -0.06385092	      1.00629257	     -0.00795193	     14.24610011	     -2.90501604	    -33.17122477	    -17.73573974	     -2.88327353	      5.99479365	      6.35765279	     -9.52314965	     -3.87067484	    -13.42738502	    -16.64559666	      7.35424378	     -2.47047351	      5.81727416	    -15.17256731	     16.55050062	     33.77240814
      1.42000000	      8.28037429	     -4.73736909	      8.83378042	     -0.05821549	      1.00518424	     -0.00807032	     14.52630556	     -3.02640565	    -33.78233080	    -16.56850649	     -2.79274483	      7.20843308	      5.67671947	     -9.73017091	     -3.76150271	    -13.21119931	    -16.74679482	      7.56880949	     -2.55241792	      6.12546036	    -15.07356106	     16.39455894	     33.56827592
      1.42500000	      8.16122621	     -4.58465180	      9.03406763	     -0.05255386	      1.00398857	     -0.00803918	     14.84201179	     -3.09398457	    -34.30503190	    -15.41456195	     -2.73415491	      8.41174948	      5.57434263	     -9.88317282	     -3.70761913	    -13.13427648	    -16.91897183	      7.91486338	     -2.30981807	      6.26016068	    -14.95297536	     16.26038529	     33.45261564
      1.43000000	      8.05256277	     -4.42033796	      9.25531445	     -0.04690611	      1.00279060	     -0.00805434	     15.13375391	     -3.17920102	    -34.83643978	    -14.29081522	     -2.68337927	      9.68777686	      5.41343656	    -10.05339895	     -3.63471082	    -12.97481727	    -17.06591607	      8.20444174	     -2.24093521	      6.40802080	    -14.84372379	     16.11845064	     33.28157075
      1.43500000	      7.91928005	     -4.24861838	      9.46789708	     -0.04129753	      1.00153802	     -0.00806959	     15.45601520	     -3.27964112	    -35.30461121	    -13.24678479	     -2.32878167	     11.04449539	      3.17736002	    -10.19252571	     -3.54475088	    -12.78837271	    -17.21532411	      8.36557851	     -2.32115108	      7.48475286	    -14.71718452	     15.97076936	     33.11905341
      1.44000000	      7.79919500	     -4.10330956	      9.67136219	     -0.03562333	      1.00028808	     -0.00802120	     15.74487058	     -3.33509466	    -35.74049465	    -12.17890715	     -2.32543081	     12.27523041	      3.14201550	    -10.34552863	     -3.49889628	    -12.66520040	    -17.38192179	      8.65942597	     -2.17771016	      7.54266939	    -14.60527806	     15.84967031	     32.99276864
      1.44500000	      7.66544581	     -3.95065716	      9.88676029	     -0.02994918	      0.99900047	     -0.00800623	     16.04305899	     -3.41203712	    -36.15169607	    -11.17663510	     -2.28018072	     13.49355897	      3.05525188	    -10.48371353	     -3.43974295	    -12.49200584	    -17.54803263	      8.94845135	     -2.11764093	      7.63380325	    -14.47519280	     15.72730214	     32.84035787
      1.45000000	      7.53562779	     -3.79920336	     10.10762172	     -0.02427788	      0.99770369	     -0.00800574	     16.33257230	     -3.49492883	    -36.51656515	    -10.25633727	     -1.97982405	     14.68486884	      1.39960204	    -10.62435983	     -3.37997175	    -12.29214063	    -17.71029914	      9.14193020	     -2.18770026	      8.38338068	    -14.35146479	     15.60814947	     32.66100881
      1.45500000	      7.40910474	     -3.66475833	     10.31586898	     -0.01854371	      0.99640343	     -0.00794798	     16.60779521	     -3.55447251	    -36.83634494	     -9.36114493	     -1.96142065	     15.73415350	      1.34893140	    -10.77470304	     -3.35006031	    -12.14269417	    -17.87673029	      9.43332859	     -2.06088091	      8.45431895	    -14.23190735	     15.50625904	     32.52024934
      1.46000000	      7.26830905	     -3.52814860	     10.52794095	     -0.01280329	      0.99508052	     -0.00791404	     16.89320610	     -3.62964600	    -37.10088859	     -8.54339580	     -1.91560197	     16.65619394	      1.26355062	    -10.90698167	     -3.31267708	    -11.96383800	    -18.04887292	      9.70003302	     -1.99768538	      8.55372905	    -14.09770630	     15.40723340	     32.37503064
      1.46500000	      7.14351913	     -3.40542406	     10.75463430	     -0.00700602	      0.99377683	     -0.00790359	     17.15301354	     -3.70348179	    -37.36133528	     -7.81339714	     -1.83444011	     17.48782421	      1.13467764	    -11.05913436	     -3.29743061	    -11.76689262	    -18.21607780	      9.95883772	     -1.94008883	      8.69443843	    -13.96926295	     15.33065765	     32.19907642
      1.47000000	      7.02488085	     -3.28934754	     10.98061765	     -0.00116493	      0.99247664	     -0.00790567	     17.40088318	     -3.78112660	    -37.57741452	     -7.17425371	     -1.72942203	     18.17759322	      0.96607645	    -11.22150825	     -3.29192066	    -11.57443915	    -18.38059488	     10.20486978	     -1.88239189	      8.87480525	    -13.84529301	     15.27067284	     32.03548363
      1.47500000	      6.91513229	     -3.17332161	     11.18273699	      0.00472944	      0.99121046	     -0.00788574	     17.63784613	     -3.86596574	    -37.71919473	     -6.65374904	     -1.38623053	     18.78605525	     -0.68912455	    -11.40984864	     -3.27949529	    -11.39937193	    -18.50628318	     10.23973187	     -2.01710704	     10.16717671	    -13.73374474	     15.20684383	     31.87161571
      1.48000000	      6.81400304	     -3.08568223	     11.42798028	      0.01065951	      0.98994229	     -0.00788515	     17.85895047	     -3.93922570	    -37.86617807	     -6.21879016	     -1.24271658	     19.05754191	     -0.73347296	    -11.58614559	     -3.32498077	    -11.19700361	    -18.68486321	     10.52458184	     -1.84840246	     10.24433270	    -13.61674612	     15.18803816	     31.69642786
      1.48500000	      6.73150562	     -3.00372972	     11.66346461	      0.01667767	      0.98871922	     -0.00790483	     18.05276549	     -4.02044306	    -38.01439422	     -5.89210728	     -1.10922730	     19.34149698	     -0.85620049	    -11.79535051	     -3.37376390	    -11.00336068	    -18.84195527	     10.73925538	     -1.79371225	     10.40611008	    -13.51322832	     15.18276457	     31.52117235
      1.49000000	      6.65626907	     -2.91258151	     11.87966106	      0.02273945	      0.98750274	     -0.00789605	     18.24332859	     -4.11959588	    -38.06699471	     -5.69592391	     -0.89974692	     19.34696162	     -0.87819184	    -12.02117377	     -3.41620034	    -10.83199887	    -18.99654147	     10.94528587	     -1.69854254	     10.51789984	    -13.42088245	     15.16718968	     31.35592652
      1.49500000	      6.59146906	     -2.84520575	     12.11455080	      0.02887666	      0.98632309	     -0.00790755	     18.41003624	     -4.20962921	    -38.13938828	     -5.59447971	     -0.70989629	     19.27648741	     -0.89887962	    -12.25274375	     -3.49430223	    -10.64438015	    -19.15617678	     11.13118254	     -1.59918758	     10.65646720	    -13.32658625	     15.18502931	     31.17072197
      1.50000000	      6.53047828	     -2.80023117	     12.34038400	      0.03509843	      0.98515717	     -0.00791580	     18.56695793	     -4.28716315	    -38.16105401	     -5.59649367	     -0.47455716	     19.10393069	     -1.33029943	    -12.49510615	     -3.59974054	    -10.47033817	    -19.29083551	     11.12692838	     -1.57987351	     12.16437929	    -13.22436573	     15.23533650	     31.00415811
      1.50500000	      6.50111879	     -2.75267771	     12.58024531	      0.04137974	      0.98404585	     -0.00793946	     18.68175930	     -4.37760081	    -38.19608519	     -5.70653660	     -0.26515360	     18.82161758	     -1.30999681	    -12.76794907	     -3.71623944	    -10.27516102	    -19.45008438	     11.27349661	     -1.47696826	     12.23838684	    -13.15210949	     15.29258468	     30.82058356
      1.51000000	      6.47009247	     -2.71439576	     12.81563779	      0.04772704	      0.98294604	     -0.00794193	     18.78680450	     -4.46363477	    -38.18537476	     -5.89490181	     -0.07916668	     18.42725658	     -1.27892746	    -13.03649188	     -3.84814519	    -10.08731078	    -19.61715410	     11.41797980	     -1.34541045	     12.36275474	    -13.06852637	     15.35933729	     30.63253506
      1.51500000	      6.44614724	     -2.67901186	     13.01624736	      0.05414875	      0.98185491	     -0.00789039	     18.87849171	     -4.53738331	    -38.09311015	     -6.15135576	     -0.00060638	     17.87583395	     -0.98686110	    -13.32155654	     -3.98269815	     -9.94929857	    -19.76968691	     11.39767022	     -1.30520045	     13.71055887	    -12.99724378	     15.43012185	     30.49560389
      1.52000000	      6.42947859	     -2.65395240	     13.23508648	      0.06063670	      0.98078194	     -0.00784010	     18.94693337	     -4.61064642	    -38.01607620	     -6.48283521	      0.12701521	     17.35182688	     -0.93095761	    -13.60089093	     -4.14198647	     -9.79356424	    -19.95850619	     11.50961463	     -1.15564011	     13.81866734	    -12.92014861	     15.51010870	     30.30146885
